<svg version="1.1" id="Calque_1" xmlns="http://www.w3.org/2000/svg" x="0" y="0" viewBox="0 0 133.63 25.45" style="enable-background:new 0 0 133.63 25.45" xml:space="preserve"><style>.st1{fill:#061a29}</style><path d="m2.31 2.43 7.71 13.32c5.79 9.99 20.23 9.97 25.99-.04l7.68-13.34-41.38.06z" style="fill:#1e3ae0"/><path class="st1" d="M54.86 8.35h2.78v9.41c0 1.5-.14 3.08-1.37 4.31-.68.68-1.87 1.39-3.9 1.39-1.91 0-3.05-.57-3.69-1.14-.77-.66-1.37-1.82-1.59-2.94h3.01c.11.46.36.91.68 1.18.55.5 1.3.52 1.69.52.8 0 1.32-.27 1.69-.62.64-.62.71-1.39.71-2.19V16.9c-.96 1.46-2.28 1.64-3.03 1.64-1.32 0-2.46-.41-3.42-1.34-.73-.73-1.57-2-1.57-3.92 0-1.55.57-2.98 1.53-3.92.87-.84 2.07-1.32 3.39-1.32 1.85 0 2.71 1 3.1 1.59V8.35zm-4.26 2.83c-.46.41-.89 1.07-.89 2.1 0 .87.32 1.5.73 1.94.59.64 1.34.87 2 .87.68 0 1.37-.25 1.85-.68.57-.52.89-1.32.89-2.12 0-.93-.41-1.57-.8-1.98-.55-.57-1.18-.8-1.94-.8-.89-.02-1.5.35-1.84.67zM62.72 8.35v5.58c0 .52.05 1.23.59 1.73.34.3.89.5 1.41.5s1.07-.21 1.41-.5c.55-.5.59-1.21.59-1.73V8.35h2.78v6.04c0 .89-.11 2.07-1.21 3.03-.91.8-2.37 1.12-3.58 1.12s-2.67-.32-3.58-1.12c-1.09-.96-1.21-2.14-1.21-3.03V8.35h2.8zM79.37 8.35h2.78v9.86h-2.78v-1.28c-1 1.44-2.32 1.59-3.03 1.59-3.03 0-5.03-2.37-5.03-5.26 0-2.92 1.98-5.24 4.9-5.24.75 0 2.23.14 3.17 1.59V8.35zm-5.19 4.92c0 1.57 1.14 2.8 2.73 2.8s2.73-1.23 2.73-2.8-1.14-2.78-2.73-2.78-2.73 1.21-2.73 2.78zM84.45 8.35h2.78v1.48c.43-.84 1.03-1.25 1.23-1.37.43-.27.98-.43 1.64-.43.48 0 .87.11 1.18.23l-.36 2.6c-.36-.25-.73-.36-1.3-.36-.52 0-1.3.11-1.85.8-.52.66-.55 1.5-.55 2.19v4.74h-2.78V8.35zM99.62 2.45h2.78v15.76h-2.78v-1.28c-1 1.44-2.32 1.59-3.03 1.59-3.03 0-5.03-2.37-5.03-5.26 0-2.92 1.98-5.24 4.9-5.24.75 0 2.23.14 3.17 1.59V2.45zm-5.19 10.82c0 1.57 1.14 2.8 2.73 2.8s2.73-1.23 2.73-2.8-1.14-2.78-2.73-2.78-2.73 1.21-2.73 2.78zM106.09 2.52c.91 0 1.66.75 1.66 1.66s-.75 1.66-1.66 1.66c-.91 0-1.66-.75-1.66-1.66s.75-1.66 1.66-1.66zm1.39 5.83v9.86h-2.78V8.35h2.78zM117.35 8.35h2.78v9.86h-2.78v-1.28c-1 1.44-2.32 1.59-3.03 1.59-3.03 0-5.03-2.37-5.03-5.26 0-2.92 1.98-5.24 4.9-5.24.75 0 2.23.14 3.17 1.59V8.35zm-5.2 4.92c0 1.57 1.14 2.8 2.73 2.8s2.73-1.23 2.73-2.8-1.14-2.78-2.73-2.78-2.73 1.21-2.73 2.78zM122.43 8.35h2.78v1.28c.52-.73 1.46-1.59 3.05-1.59.87 0 2.14.25 2.92 1.21.68.84.77 1.82.77 2.78v6.2h-2.78v-5.38c0-.55-.02-1.41-.52-1.94-.43-.46-1.03-.5-1.3-.5-.73 0-1.3.25-1.71.87-.41.64-.43 1.34-.43 1.91v5.03h-2.78V8.35z"/></svg>